<svg version="1" xmlns="http://www.w3.org/2000/svg" width="685.333" height="685.333" viewBox="0 0 514.000000 514.000000"><path d="M242.5.6c-25.1 1.9-44.5 5.7-66.2 13-39.4 13-70.3 32.3-100.4 62.3-22.6 22.7-37.5 43.5-50.6 70.9-11.4 23.8-20 53.4-23.4 80.7-1.6 12.9-1.6 46.1 0 59 4.5 36.2 17.6 74.3 35.6 103.5 20.8 33.9 52.6 65.7 86.5 86.5 29.2 18 67.3 31.1 103.5 35.6 12.9 1.6 46.1 1.6 59 0 36.2-4.5 74.3-17.6 103.5-35.6 33.9-20.8 65.7-52.6 86.5-86.5 18-29.2 31.1-67.3 35.6-103.5 1.6-12.9 1.6-46.1 0-59-4.5-36.2-17.6-74.3-35.6-103.5-20.8-33.9-52.6-65.7-86.5-86.5-28.9-17.8-68-31.3-102.7-35.4C277.9.9 250 0 242.5.6zm241.3 219.3c1.7 5.5 1.5 32.9-.3 42.6-2.1 11.1-3.3 15.6-3.4 12.7-.1-1.2-.5-2.2-1.1-2.2-.6 0-1-2.7-1-6s-.4-6-1-6-1-2.7-1-6-.4-6-1-6-1-2.7-1-6c0-4.1-.4-6-1.2-6.1-1 0-1-.2 0-.6.6-.2 1.2-1.6 1.2-2.9 0-1.3.5-2.4 1-2.4.6 0 1-1.1 1-2.5s.5-2.5 1-2.5c.6 0 1-1.4 1-3 0-1.7.5-3 1-3 .6 0 1-.9 1-2 0-3.5 2.6-2.2 3.8 1.9zm-73.8-.4c4 .7 5.5 1.3 12.5 4.6 7.8 3.7 15 10.2 18.1 16.1 3.2 6.2 1.8 22.8-2.9 34-2.7 6.4-12 18.8-14.1 18.8-.4 0-1.6.9-2.8 2-1.2 1.1-2.8 2-3.5 2-.7 0-1.3.3-1.3.8 0 .9-7.2 3.2-10 3.2-1.1 0-2 .4-2 1s-3.8 1-9.5 1c-8.8 0-9.8-.2-12-2.5-1.4-1.3-2.5-3.1-2.5-4 0-.8-.4-1.5-.8-1.5-.5 0-1.5-1.2-2.3-2.8-2.1-4-8-9.2-10.5-9.2-1.3 0-2.6-.5-2.9-1-.3-.6-2.2-1-4.1-1H356v-7.9c0-4.4.5-8.3 1-8.6.6-.3 1-3.3 1-6.6s.4-5.9 1-5.9 1-1.3 1-2.9c0-1.7.5-3.3 1-3.6.6-.3 1-1.7 1-3.1 0-1.3.5-2.4 1-2.4.6 0 1-.7 1-1.5s.5-1.5 1-1.5c.6 0 1-.5 1-1.1 0-.6.6-1.6 1.3-2.4.6-.7 1.9-2.1 2.8-3.1 4.3-5.1 13.2-10.4 17.3-10.4 1.2 0 2.8-.5 3.6-1 1.5-1.1 12.5-.8 19 .5zm-247.5 7c4.4 4.4 4.5 4.6 4.5 11 0 3.7.4 6.5 1 6.5s1 3 1 6.9c0 3.9.5 7.3 1 7.6.6.3 1 4 1 8.1 0 4.3.4 7.4 1 7.4s1 3 1 7 .4 7 1 7 1 3.2 1 7.6c0 8-.7 8.4-3.9 2.1-.8-1.5-1.8-2.7-2.3-2.7-.4 0-.8-.7-.8-1.5 0-.9-.9-2.5-2-3.7-1.1-1.2-2-2.8-2-3.5 0-.7-.4-1.3-1-1.3-.5 0-1-.9-1-2s-.4-2-1-2c-.5 0-1-.9-1-2s-.4-2-1-2c-.5 0-1-.9-1-2s-.4-2-1-2c-.5 0-1-1.1-1-2.4 0-1.4-.4-2.8-1-3.1-.5-.3-1-1.5-1-2.6 0-1-.4-1.9-1-1.9-.5 0-1-1.4-1-3 0-1.7-.4-3-1-3-.5 0-1-1.5-1-3.4s-.4-3.8-1-4.1c-.5-.3-1-2.4-1-4.6 0-2.1-.4-3.9-1-3.9-1.4 0-1.2-11.6.3-14.2 2.3-4.1 3.2-4.7 7-4.8 3.1 0 4.5.7 8.2 4.5zm114 10.5c.3.5 1.5 1 2.5 1 3.7 0 13.2 6.1 19.5 12.5 4.8 4.9 7.3 8.5 10.4 14.5 1.3 2.5 2.8 5.3 3.3 6.4 1.3 2.4 1.1 19.2-.2 21.6-.6 1-1 2.8-1 3.9 0 1.2-.4 2.9-.9 3.9-.5.9-1.4 2.9-2.1 4.3-1.9 4.1-5.1 7.2-10 9.7-4.3 2.2-5.4 2.3-22.5 1.9-20.2-.4-21.4-.6-30.5-5-9.3-4.5-19-15.6-19-21.7 0-1.1-.4-2.2-1-2.5-.6-.4-1-6.1-1-13.7v-13.1l8.3-8.1c4.5-4.4 9.3-8.7 10.6-9.4 1.3-.8 3.9-2.2 5.8-3.3 1.8-1 4.2-1.9 5.3-1.9 1 0 2.2-.5 2.5-1 .3-.6 4.8-1 10-1s9.7.4 10 1zm-100.4 11c.5 0 .9.9.9 2s.5 2 1 2c.6 0 1 .7 1 1.5s.5 1.5 1 1.5c.6 0 1 .7 1 1.5s.5 1.5 1 1.5c.6 0 1 .8 1 1.8s.9 2.4 2 3.2c1.1.8 2 2.1 2 2.8 0 .8 1.4 2.7 3 4.2 1.7 1.5 3 3.3 3 4 0 .7 1.4 2.5 3 4 1.7 1.5 3 3.5 3 4.4 0 .9.5 1.6 1 1.6.6 0 1 4.6 1 11.9 0 7.3.4 12.1 1 12.3.7.2 1 4.8.8 12.7l-.3 12.4-7.5-7.4c-8.7-8.5-11-11.4-11-13.4 0-.7-.4-1.7-1-2-.5-.3-1-3.7-1-7.5s-.4-7.2-1-7.5c-.5-.3-1-3.7-1-7.6 0-3.9-.4-6.9-1-6.9s-1-3.1-1-7.4c0-4.1-.4-7.8-1-8.1-.5-.3-1-3.7-1-7.6 0-3.9-.4-6.9-1-6.9-.5 0-.9-1.7-.9-3.8.1-2.3.3-2.8.6-1.5.2 1.3.9 2.3 1.4 2.3zm294.8 12.5c.5 2.7 1.4 7.7 2 11 .6 3.3 1.5 9.1 2.1 13l1.1 7-5.5 11.2c-3 6.1-7.5 14.2-10 17.9l-4.6 6.9v-8.3c0-4.8-.4-8.2-1-8.2s-1-5-1-13-.4-13-1-13c-.5 0-1-1.1-1-2.5s.5-2.5 1-2.5c.6 0 1-.9 1-2s.5-2 1-2c.6 0 1-.9 1-2s.5-2 1-2c.6 0 1-.9 1-2s.5-2 1-2c.6 0 1-.9 1-2s.5-2 1-2c.6 0 1-.9 1-2s.5-2 1-2c.6 0 1-.9 1-2s.5-2 1-2c.6 0 1-1.4 1-3 0-1.7.5-3 1-3 .6 0 1.1-1 1.1-2.3.1-1.2.6 0 1.1 2.8.4 2.7 1.2 7.2 1.7 10zm-250 46.4l12.1 12v13.6c0 8.3.4 13.5 1 13.5s1 2.5 1 5.5v5.5l-2.5-1.2c-1.4-.6-2.5-1.5-2.5-2 0-.4-.6-.8-1.2-.8-.7 0-2.9-1.4-4.8-3s-3.8-3-4.3-3c-.4 0-2.1-1.4-3.9-3-1.7-1.7-3.7-3-4.4-3-1.1 0-1.4-1.9-1.4-8 0-4.7-.4-8-1-8s-1-5.7-1-15-.4-15-1-15c-.5 0-1-1.2-1-2.8v-2.7l1.4 2.7c.8 1.5 6.9 8.1 13.5 14.7zm228.2 2.1c.4 6.9 1.1 15.4 1.5 19l.6 6.5-11.3 11.5-11.4 11.5-.3-10.3c-.1-5.7-.7-10.2-1.2-10.2-.6 0-1-4.4-1-10.5 0-6.3.4-10.5 1-10.5s1-.7 1-1.6c0-.8 2.3-3.7 5-6.4 2.8-2.7 5-5.4 5-6 0-.7 1.4-2.5 3-4 1.7-1.5 3-3.3 3-3.9 0-.7.6-1.8 1.3-2.5 1.8-2 2.7 2.3 3.8 17.4zm-99.6-7h3.6l-2.4 2.2c-5.2 5.1-7.1 5.1-12.2.3l-2.1-2 3-1.1c1.8-.6 3.8-.7 4.8-.2.9.4 3.3.8 5.3.8zM245 328c.7 0 2.5 1.3 4 3 1.5 1.6 3.4 3 4.2 3 .7 0 2 .9 2.8 2 .8 1.1 2.2 2 3.2 2s1.8.4 1.8 1c0 .5.9 1 2 1s2 .4 2 1c0 .5.7 1 1.5 1s1.5.4 1.5 1c0 .5.9 1 2 1s2 .4 2 1c0 .5.9 1 2 1s2 .4 2 1c0 .5 1.1 1 2.5 1 2.5 0 2.5.1 2.5 8 0 4.7.4 8 1 8s1 3.5 1 8.5c0 6.9-.3 8.5-1.5 8.5-.8 0-1.5-.5-1.5-1 0-.6-1.1-1-2.4-1-1.4 0-2.8-.5-3.1-1-.3-.6-1.5-1-2.6-1-1 0-1.9-.5-1.9-1 0-.6-.9-1-2-1s-2-.5-2-1c0-.6-.9-1-2-1s-2-.5-2-1c0-.6-.9-1-2-1s-2-.5-2-1c0-.6-.9-1-2-1s-2-.5-2-1c0-.6-.9-1-2-1s-2-.5-2-1c0-.6-.9-1-2-1s-2-.3-2-.8c0-.4-1.3-1.3-3-2l-3-1.4v-16.9c0-10.6-.4-16.9-1-16.9-.5 0-1-1.2-1-2.6v-2.6l2.9 3.1c1.6 1.7 3.4 3.1 4.1 3.1zm176.2 8c.5 5.8 1.1 13.9 1.4 18.1.5 7.5.5 7.6-2.3 9.4-1.5 1-3.6 2.7-4.7 3.7s-3.2 2.4-4.8 3c-1.5.7-2.8 1.6-2.8 2 0 .5-.7.8-1.5.8s-1.5.3-1.5.8c0 .4-1.7 1.5-3.7 2.5-2.1.9-5.4 2.6-7.3 3.7l-3.5 2-.3-15.5c-.1-9.2-.6-15.5-1.2-15.5s-1-2-1-4.5c0-3.8.3-4.5 2-4.5 1.1 0 2-.5 2-1 0-.6.9-1 2-1s2-.5 2-1c0-.6.9-1 2-1s2-.5 2-1c0-.6.6-1 1.4-1 .7 0 2.7-1.4 4.4-3 1.8-1.7 3.7-3 4.4-3 .7-.1 2.9-1.8 4.8-3.9 3-3.3 3.6-3.6 4.5-2.2.6.9 1.3 6.3 1.7 12.1zM383 358c0 7.3.4 12 1 12s1 3.1 1 7.2c0 6.9-.1 7.4-2.7 8.5-1.5.7-3.3 1.3-4 1.3-.7 0-2.2.4-3.3 1-1.1.5-2.9 1.4-4 2-1.1.5-3.1 1-4.4 1-1.4 0-2.8.4-3.1 1-.3.5-2.1 1-4 1s-3.7.4-4 1c-.3.6-4.8 1-10.1 1H336v-14c0-8.7-.4-14-1-14s-1-2.8-1-6.5V354h4c2.2 0 4-.5 4-1 0-.6.9-1 2-1s2-.5 2-1c0-.6 1.1-1 2.4-1 1.4 0 2.8-.5 3.1-1 .4-.7 1.4-.3 2.5 1 1.8 2.1 8 2.9 8 1 0-.6 1.8-1 4-1s4-.5 4-1c0-.6 1.8-1 4-1s4-.5 4-1c0-.6 1.1-1 2.5-1h2.5v12zm-90-5c0 .5 1.8 1 4 1s4 .4 4 1 5.3 1 14 1h14v12c0 7.3.4 12 1 12s1 3.2 1 7.5c0 6-.3 7.5-1.5 7.5-.8 0-1.5-.5-1.5-1 0-.6-2.2-1-5-1-2.7 0-5-.5-5-1 0-.6-1.8-1-4-1s-4-.5-4-1c0-.6-1.8-1-4-1s-4-.5-4-1c0-.6-1.3-1-3-1-1.6 0-3-.5-3-1 0-.6-1.3-1-3-1-2.8 0-3-.2-3-4 0-2.2-.4-4-.9-4-.6 0-1.1-5.6-1.3-12.5l-.3-12.5h2.8c1.5 0 2.7.4 2.7 1z"/><path d="M393.2 261c-2.2 2.1-3 7.3-1.4 9.6.8 1.2 4.6 3.4 5.9 3.4.4 0 2-1.1 3.6-2.4 3.5-3.1 3.6-7.4.2-10.4-3.1-2.7-5.5-2.8-8.3-.2zM278.2 276.2c-.7.7-1.2 2.9-1.2 4.9 0 2.8.6 4.1 2.5 5.3 1.3.9 3.1 1.6 4 1.6.9 0 2.7-.7 4-1.6 2.9-1.9 3.5-7.6 1.1-10-1.8-1.7-8.7-1.9-10.4-.2z"/></svg>